<?xml version="1.0" encoding="UTF-8" standalone="no"?>
<!-- Created with Inkscape (http://www.inkscape.org/) -->

<svg
   xmlns:dc="http://purl.org/dc/elements/1.1/"
   xmlns:cc="http://creativecommons.org/ns#"
   xmlns:rdf="http://www.w3.org/1999/02/22-rdf-syntax-ns#"
   xmlns:svg="http://www.w3.org/2000/svg"
   xmlns="http://www.w3.org/2000/svg"
   xmlns:xlink="http://www.w3.org/1999/xlink"
   xmlns:sodipodi="http://sodipodi.sourceforge.net/DTD/sodipodi-0.dtd"
   xmlns:inkscape="http://www.inkscape.org/namespaces/inkscape"
   width="620"
   height="300"
   id="svg2"
   version="1.1"
   inkscape:version="0.48.4 r9939"
   sodipodi:docname="logo.svg"
   inkscape:export-filename="C:\Users\Ted\Documents\GitHub\rrhmg\rrhmg\IntelOrca.RRHMG.Metro\Assets\SplashScreen.png"
   inkscape:export-xdpi="90"
   inkscape:export-ydpi="90">
  <defs
     id="defs4">
    <linearGradient
       gradientUnits="userSpaceOnUse"
       gradientTransform="matrix(1.8411899,0,0,0.54312703,-54.59464,-130.3831)"
       y2="962.14014"
       x2="198.69965"
       y1="1119.3928"
       x1="170.35378"
       id="linearGradient838"
       xlink:href="#linearGradient834" />
    <linearGradient
       gradientUnits="userSpaceOnUse"
       gradientTransform="matrix(1.3443755,0,0,0.74383982,-54.59464,-130.3831)"
       y2="242.05753"
       x2="260.853"
       y1="369.16907"
       x1="187.60558"
       id="linearGradient837"
       xlink:href="#linearGradient834" />
    <linearGradient
       id="linearGradient834">
      <stop
         id="stop835"
         offset="0.0000000"
         style="stop-color:#ffffff;stop-opacity:0.0000000;" />
      <stop
         id="stop836"
         offset="1.0000000"
         style="stop-color:#ffffff;stop-opacity:0.19354838;" />
    </linearGradient>
    <linearGradient
       inkscape:collect="always"
       xlink:href="#linearGradient834"
       id="linearGradient3978"
       gradientUnits="userSpaceOnUse"
       gradientTransform="matrix(1.3443755,0,0,0.74383982,-54.59464,-130.3831)"
       x1="187.60558"
       y1="369.16907"
       x2="260.853"
       y2="242.05753" />
    <linearGradient
       inkscape:collect="always"
       xlink:href="#linearGradient834"
       id="linearGradient3980"
       gradientUnits="userSpaceOnUse"
       gradientTransform="matrix(1.8411899,0,0,0.54312703,-54.59464,-130.3831)"
       x1="170.35378"
       y1="1119.3928"
       x2="198.69965"
       y2="962.14014" />
  </defs>
  <sodipodi:namedview
     id="base"
     pagecolor="#ffffff"
     bordercolor="#666666"
     borderopacity="1.0"
     inkscape:pageopacity="0.0"
     inkscape:pageshadow="2"
     inkscape:zoom="0.75"
     inkscape:cx="58.127127"
     inkscape:cy="55.830285"
     inkscape:document-units="px"
     inkscape:current-layer="layer1"
     showgrid="false"
     inkscape:window-width="1366"
     inkscape:window-height="705"
     inkscape:window-x="-32000"
     inkscape:window-y="-32000"
     inkscape:window-maximized="0" />
  <metadata
     id="metadata7">
    <rdf:RDF>
      <cc:Work
         rdf:about="">
        <dc:format>image/svg+xml</dc:format>
        <dc:type
           rdf:resource="http://purl.org/dc/dcmitype/StillImage" />
        <dc:title></dc:title>
      </cc:Work>
    </rdf:RDF>
  </metadata>
  <g
     inkscape:label="Layer 1"
     inkscape:groupmode="layer"
     id="layer1"
     transform="translate(0,-752.36218)">
    <g
       id="g3953"
       transform="matrix(2.4436207,0,0,2.4436207,153.60827,-1512.8201)">
      <path
         transform="matrix(0.57062259,0,0,0.56982986,-2.8443624,811.99697)"
         d="m 172.78383,405.87804 -111.28195,-10e-6 -55.6409715,-96.373 55.6409805,-96.37299 111.281951,0 55.64097,96.373 z"
         inkscape:randomized="0"
         inkscape:rounded="0"
         inkscape:flatsided="true"
         sodipodi:arg2="1.5707963"
         sodipodi:arg1="1.0471976"
         sodipodi:r2="96.373001"
         sodipodi:r1="111.28195"
         sodipodi:cy="309.50504"
         sodipodi:cx="117.14286"
         sodipodi:sides="6"
         id="path2985"
         style="fill:#008000;fill-opacity:0.50196078;stroke:#000000;stroke-width:1.75370526;stroke-linecap:round;stroke-miterlimit:4;stroke-opacity:1;stroke-dasharray:none"
         sodipodi:type="star" />
      <path
         sodipodi:type="star"
         style="fill:#000080;fill-opacity:0.50196078;stroke:#000000;stroke-width:2.81909561;stroke-linecap:round;stroke-miterlimit:4;stroke-opacity:1;stroke-dasharray:none"
         id="path3783"
         sodipodi:sides="6"
         sodipodi:cx="117.14286"
         sodipodi:cy="309.50504"
         sodipodi:r1="111.28195"
         sodipodi:r2="96.373001"
         sodipodi:arg1="1.0471976"
         sodipodi:arg2="1.5707963"
         inkscape:flatsided="true"
         inkscape:rounded="0"
         inkscape:randomized="0"
         d="m 172.78383,405.87804 -111.28195,-10e-6 -55.6409715,-96.373 55.6409805,-96.37299 111.281951,0 55.64097,96.373 z"
         transform="matrix(0.17747722,0,0,0.17723065,43.209811,897.67816)" />
      <path
         transform="matrix(0.17747722,0,0,0.17723065,43.209811,933.5084)"
         d="m 172.78383,405.87804 -111.28195,-10e-6 -55.6409715,-96.373 55.6409805,-96.37299 111.281951,0 55.64097,96.373 z"
         inkscape:randomized="0"
         inkscape:rounded="0"
         inkscape:flatsided="true"
         sodipodi:arg2="1.5707963"
         sodipodi:arg1="1.0471976"
         sodipodi:r2="96.373001"
         sodipodi:r1="111.28195"
         sodipodi:cy="309.50504"
         sodipodi:cx="117.14286"
         sodipodi:sides="6"
         id="path3785"
         style="fill:#000080;fill-opacity:0.50196078;stroke:#000000;stroke-width:2.81909561;stroke-linecap:round;stroke-miterlimit:4;stroke-opacity:1;stroke-dasharray:none"
         sodipodi:type="star" />
      <path
         sodipodi:type="star"
         style="fill:#003c00;fill-opacity:0.50196078;stroke:#000000;stroke-width:2.81909561;stroke-linecap:round;stroke-miterlimit:4;stroke-opacity:1;stroke-dasharray:none"
         id="path3787"
         sodipodi:sides="6"
         sodipodi:cx="117.14286"
         sodipodi:cy="309.50504"
         sodipodi:r1="111.28195"
         sodipodi:r2="96.373001"
         sodipodi:arg1="1.0471976"
         sodipodi:arg2="1.5707963"
         inkscape:flatsided="true"
         inkscape:rounded="0"
         inkscape:randomized="0"
         d="m 172.78383,405.87804 -111.28195,-10e-6 -55.6409715,-96.373 55.6409805,-96.37299 111.281951,0 55.64097,96.373 z"
         transform="matrix(0.17747722,0,0,0.17723065,43.209811,969.67816)" />
      <path
         transform="matrix(0.17747722,0,0,0.17723065,12.209811,951.67816)"
         d="m 172.78383,405.87804 -111.28195,-10e-6 -55.6409715,-96.373 55.6409805,-96.37299 111.281951,0 55.64097,96.373 z"
         inkscape:randomized="0"
         inkscape:rounded="0"
         inkscape:flatsided="true"
         sodipodi:arg2="1.5707963"
         sodipodi:arg1="1.0471976"
         sodipodi:r2="96.373001"
         sodipodi:r1="111.28195"
         sodipodi:cy="309.50504"
         sodipodi:cx="117.14286"
         sodipodi:sides="6"
         id="path3789"
         style="fill:#008000;fill-opacity:0.50196078;stroke:#000000;stroke-width:2.81909561;stroke-linecap:round;stroke-miterlimit:4;stroke-opacity:1;stroke-dasharray:none"
         sodipodi:type="star" />
      <path
         sodipodi:type="star"
         style="fill:#000080;fill-opacity:0.50196078;stroke:#000000;stroke-width:2.81909561;stroke-linecap:round;stroke-miterlimit:4;stroke-opacity:1;stroke-dasharray:none"
         id="path3791"
         sodipodi:sides="6"
         sodipodi:cx="117.14286"
         sodipodi:cy="309.50504"
         sodipodi:r1="111.28195"
         sodipodi:r2="96.373001"
         sodipodi:arg1="1.0471976"
         sodipodi:arg2="1.5707963"
         inkscape:flatsided="true"
         inkscape:rounded="0"
         inkscape:randomized="0"
         d="m 172.78383,405.87804 -111.28195,-10e-6 -55.6409715,-96.373 55.6409805,-96.37299 111.281951,0 55.64097,96.373 z"
         transform="matrix(0.17747722,0,0,0.17723065,12.209811,915.67816)" />
      <path
         transform="matrix(0.17747722,0,0,0.17723065,74.209811,915.67816)"
         d="m 172.78383,405.87804 -111.28195,-10e-6 -55.6409715,-96.373 55.6409805,-96.37299 111.281951,0 55.64097,96.373 z"
         inkscape:randomized="0"
         inkscape:rounded="0"
         inkscape:flatsided="true"
         sodipodi:arg2="1.5707963"
         sodipodi:arg1="1.0471976"
         sodipodi:r2="96.373001"
         sodipodi:r1="111.28195"
         sodipodi:cy="309.50504"
         sodipodi:cx="117.14286"
         sodipodi:sides="6"
         id="path3793"
         style="fill:#008000;fill-opacity:0.50196078;stroke:#000000;stroke-width:2.81909561;stroke-linecap:round;stroke-miterlimit:4;stroke-opacity:1;stroke-dasharray:none"
         sodipodi:type="star" />
      <path
         sodipodi:type="star"
         style="fill:#003c00;fill-opacity:0.50196078;stroke:#000000;stroke-width:2.81909561;stroke-linecap:round;stroke-miterlimit:4;stroke-opacity:1;stroke-dasharray:none"
         id="path3795"
         sodipodi:sides="6"
         sodipodi:cx="117.14286"
         sodipodi:cy="309.50504"
         sodipodi:r1="111.28195"
         sodipodi:r2="96.373001"
         sodipodi:arg1="1.0471976"
         sodipodi:arg2="1.5707963"
         inkscape:flatsided="true"
         inkscape:rounded="0"
         inkscape:randomized="0"
         d="m 172.78383,405.87804 -111.28195,-10e-6 -55.6409715,-96.373 55.6409805,-96.37299 111.281951,0 55.64097,96.373 z"
         transform="matrix(0.17747722,0,0,0.17723065,74.209811,951.67816)" />
      <g
         id="g3933">
        <g
           id="g3915"
           transform="matrix(0.0550247,0,0,0.0550247,49.905768,972.78349)"
           style="fill:#000000">
          <path
             inkscape:connector-curvature="0"
             id="path3917"
             d="m 2.5272219,179.39488 c -7.544397,-19.39988 4.311084,-31.25536 3.233313,-40.9553 -1.077771,-9.69994 3.233313,-22.63319 12.9332521,-42.033066 9.699938,-19.39987 85.143903,-92.6883009 183.221063,-91.6105309 98.07716,1.07777 173.52113,46.3441509 173.52113,46.3441509 0,0 34.48867,-30.17759 73.28843,-37.72198 38.79975,-7.5444009 92.6883,-17.2443409 94.84384,-11.8554809 2.15554,5.38885 -68.97734,39.8775209 -73.28842,53.8885509 -4.31109,14.01102 -24.78874,59.277396 -24.78874,59.277396 0,0 44.18861,61.43295 48.4997,87.29945 4.31108,25.8665 32.33313,167.0545 -38.79976,232.79853 -71.13288,65.74403 -103.46601,72.21066 -103.46601,72.21066 0,0 0,33.4109 -21.55542,50.65523 -21.55542,17.24434 -103.46601,39.87753 -103.46601,39.87753 0,0 31.25535,-32.33313 28.02204,-50.65524 -3.23331,-18.3221 -21.55542,-43.11084 -21.55542,-43.11084 l 14.01102,-10.77771 -22.63319,4.31109 c 0,0 -7.54439,-15.0888 -25.8665,-17.24434 -18.32211,-2.15554 -44.18861,-5.38885 -44.18861,-5.38885 0,0 105.62156,-56.04409 131.48806,-42.03307 25.8665,14.01102 61.43294,54.96632 61.43294,54.96632 0,0 42.03307,-88.37722 34.48868,-112.08818 -7.5444,-23.71096 -61.43295,-125.02144 -73.28843,-133.6436 -11.85548,-8.62217 -20.47765,-18.32211 -20.47765,-18.32211 0,0 -6.46662,17.24433 -15.08879,22.63319 -8.62217,5.38885 -28.02205,16.16656 -37.72199,8.62217 -9.69994,-7.5444 2.15555,-64.66626 2.15555,-64.66626 0,0 -3.23332,-4.31109 -16.16657,-6.46663 -12.93325,-2.15554 -25.8665,-2.15554 -25.8665,-2.15554 0,0 21.55542,21.55542 23.71096,40.9553 2.15554,19.39988 -18.32211,75.44397 -29.09982,82.98836 -10.77771,7.5444 -15.08879,16.16657 -19.39988,7.5444 -4.31108,-8.62217 -3.23331,-84.06614 -6.46662,-93.76608 -3.23331,-9.69993 -6.46663,-38.79975 -12.93325,-38.79975 -6.46663,0 -58.19964,21.55542 -71.13289,22.63319 C 67.19348,204.18361 30.549267,200.9503 20.849328,197.71699 11.14939,194.48367 2.5272219,179.39488 2.5272219,179.39488 z"
             style="fill:#000000;fill-opacity:1;fill-rule:evenodd;stroke:none" />
          <path
             inkscape:connector-curvature="0"
             id="path3919"
             d="m 4.6827639,170.77271 c 0,0 2.155542,16.16657 11.8554811,20.47765 9.699938,4.31108 45.266385,9.69994 59.277405,8.62217 14.01102,-1.07777 68.97734,-22.63319 76.52174,-23.71096 7.54439,-1.07778 44.18861,-1.07778 49.57746,0 5.38886,1.07777 37.72199,7.54439 37.72199,7.54439 0,0 8.62216,-30.17758 11.85548,-37.72198 3.23331,-7.5444 -5.38886,-5.38886 -18.32211,-6.46663 -12.93325,-1.07777 -30.17759,-24.78873 -38.79975,-28.02204 -8.62217,-3.23332 -44.18861,-21.555416 -59.27741,-19.399876 -15.08879,2.15554 -16.16656,19.399876 -23.71096,25.866496 -7.5444,6.46663 -19.39988,15.0888 -19.39988,15.0888 0,0 10.77771,2.15554 5.38886,6.46662 -5.38886,4.31109 -22.63319,18.32211 -31.25536,20.47765 -8.62217,2.15554 -29.099817,15.08879 -39.877527,15.08879 -10.777709,0 -21.5554191,-4.31108 -21.5554191,-4.31108 z"
             style="fill:#000000;fill-opacity:0.9435484;fill-rule:evenodd;stroke:none" />
          <path
             inkscape:connector-curvature="0"
             id="path3921"
             d="m 72.58234,113.65085 c 8.62216,-3.23331 11.85548,2.15554 10.77771,6.46662 -1.07778,4.31109 1.07777,3.23332 1.07777,3.23332 0,0 5.38885,-4.31109 10.77771,-11.85548 5.38885,-7.5444 26.94427,-32.333126 21.55542,-38.799756 -5.38886,-6.46662 -16.16657,-4.31108 -25.86651,6.46663 -9.69994,10.77771 -18.3221,34.488666 -18.3221,34.488666 z"
             style="fill:#000000;fill-opacity:0.95967742;fill-rule:evenodd;stroke:none" />
          <path
             inkscape:connector-curvature="0"
             id="path3923"
             d="m 289.2143,219.2724 15.0888,-25.8665 c 0,0 15.08879,5.38886 25.8665,19.39988 10.77771,14.01102 12.93325,46.34415 20.47765,58.19963 7.54439,11.85548 47.42192,-3.23331 64.66626,7.5444 17.24433,10.77771 54.96632,89.45499 48.49969,113.16595 -6.46663,23.71096 -15.08879,24.78873 -26.94427,6.46663 -11.85548,-18.32211 -35.56645,-92.68831 -53.88855,-95.92162 -18.32211,-3.23331 -6.46663,26.94427 -2.15554,39.87753 4.31108,12.93325 20.47764,37.72198 15.08879,51.733 -5.38886,14.01103 -18.32211,33.4109 -18.32211,33.4109 0,0 14.01103,-39.87752 10.77771,-50.65523 -3.23331,-10.77771 -44.18861,-90.53276 -47.42192,-95.92162 -3.23331,-5.38885 -21.55542,-36.64421 -25.8665,-40.9553 -4.31109,-4.31108 -25.86651,-20.47765 -25.86651,-20.47765 z"
             style="fill:#000000;fill-opacity:0.95967742;fill-rule:evenodd;stroke:none" />
          <path
             inkscape:connector-curvature="0"
             id="path3925"
             d="m 11.14939,117.96193 c 0,0 8.622168,-18.322096 17.244335,-28.022036 8.622168,-9.69994 57.121865,-56.04409 106.699325,-68.97735 49.57747,-12.9332509 114.24373,-12.9332509 164.89896,5.38886 50.65524,18.32211 92.68831,38.79975 121.78812,72.21066 29.09982,33.410896 63.58849,81.910586 64.66626,93.766066 1.07777,11.85548 10.77771,63.58849 10.77771,85.14391 0,21.55542 -107.7771,-67.89957 -126.0992,-93.76608 -18.32211,-25.8665 -84.06614,-123.943656 -117.47704,-132.565826 -33.4109,-8.62217 -111.01041,-20.47765 -127.17698,-10.77771 -16.16656,9.69994 -44.18861,17.24434 -57.12186,36.64422 -12.93325,19.39987 2.15554,5.38885 3.23332,11.85548 1.07777,6.46662 -18.32211,20.477636 -32.333134,29.099806 -14.011023,8.62217 -29.099816,0 -29.099816,0 z"
             style="fill:#000000;fill-opacity:0.25806448;fill-rule:evenodd;stroke:none" />
          <path
             inkscape:connector-curvature="0"
             id="path3927"
             d="m 339.86954,487.63738 c 0,0 -37.72199,-44.18861 -53.88855,-47.42192 -16.16657,-3.23332 -67.89957,7.54439 -84.06614,17.24433 -16.16656,9.69994 -24.78873,14.01102 -24.78873,14.01102 l 87.29945,-11.85548 -32.33313,15.0888 c 0,0 26.94427,-6.46663 52.81078,-1.07777 25.8665,5.38885 54.96632,14.01102 54.96632,14.01102 z"
             style="fill:#000000;fill-opacity:0.20967742;fill-rule:evenodd;stroke:none" />
        </g>
        <g
           transform="matrix(0.0550247,0,0,0.0550247,49.043841,971.92157)"
           id="g3017">
          <path
             style="fill:#0c1012;fill-opacity:1;fill-rule:evenodd;stroke:none"
             d="m 2.5272219,179.39488 c -7.544397,-19.39988 4.311084,-31.25536 3.233313,-40.9553 -1.077771,-9.69994 3.233313,-22.63319 12.9332521,-42.033066 9.699938,-19.39987 85.143903,-92.6883009 183.221063,-91.6105309 98.07716,1.07777 173.52113,46.3441509 173.52113,46.3441509 0,0 34.48867,-30.17759 73.28843,-37.72198 38.79975,-7.5444009 92.6883,-17.2443409 94.84384,-11.8554809 2.15554,5.38885 -68.97734,39.8775209 -73.28842,53.8885509 -4.31109,14.01102 -24.78874,59.277396 -24.78874,59.277396 0,0 44.18861,61.43295 48.4997,87.29945 4.31108,25.8665 32.33313,167.0545 -38.79976,232.79853 -71.13288,65.74403 -103.46601,72.21066 -103.46601,72.21066 0,0 0,33.4109 -21.55542,50.65523 -21.55542,17.24434 -103.46601,39.87753 -103.46601,39.87753 0,0 31.25535,-32.33313 28.02204,-50.65524 -3.23331,-18.3221 -21.55542,-43.11084 -21.55542,-43.11084 l 14.01102,-10.77771 -22.63319,4.31109 c 0,0 -7.54439,-15.0888 -25.8665,-17.24434 -18.32211,-2.15554 -44.18861,-5.38885 -44.18861,-5.38885 0,0 105.62156,-56.04409 131.48806,-42.03307 25.8665,14.01102 61.43294,54.96632 61.43294,54.96632 0,0 42.03307,-88.37722 34.48868,-112.08818 -7.5444,-23.71096 -61.43295,-125.02144 -73.28843,-133.6436 -11.85548,-8.62217 -20.47765,-18.32211 -20.47765,-18.32211 0,0 -6.46662,17.24433 -15.08879,22.63319 -8.62217,5.38885 -28.02205,16.16656 -37.72199,8.62217 -9.69994,-7.5444 2.15555,-64.66626 2.15555,-64.66626 0,0 -3.23332,-4.31109 -16.16657,-6.46663 -12.93325,-2.15554 -25.8665,-2.15554 -25.8665,-2.15554 0,0 21.55542,21.55542 23.71096,40.9553 2.15554,19.39988 -18.32211,75.44397 -29.09982,82.98836 -10.77771,7.5444 -15.08879,16.16657 -19.39988,7.5444 -4.31108,-8.62217 -3.23331,-84.06614 -6.46662,-93.76608 -3.23331,-9.69993 -6.46663,-38.79975 -12.93325,-38.79975 -6.46663,0 -58.19964,21.55542 -71.13289,22.63319 C 67.19348,204.18361 30.549267,200.9503 20.849328,197.71699 11.14939,194.48367 2.5272219,179.39488 2.5272219,179.39488 z"
             id="path828"
             inkscape:connector-curvature="0" />
          <path
             style="fill:#ffffff;fill-opacity:0.9435484;fill-rule:evenodd;stroke:none"
             d="m 4.6827639,170.77271 c 0,0 2.155542,16.16657 11.8554811,20.47765 9.699938,4.31108 45.266385,9.69994 59.277405,8.62217 14.01102,-1.07777 68.97734,-22.63319 76.52174,-23.71096 7.54439,-1.07778 44.18861,-1.07778 49.57746,0 5.38886,1.07777 37.72199,7.54439 37.72199,7.54439 0,0 8.62216,-30.17758 11.85548,-37.72198 3.23331,-7.5444 -5.38886,-5.38886 -18.32211,-6.46663 -12.93325,-1.07777 -30.17759,-24.78873 -38.79975,-28.02204 -8.62217,-3.23332 -44.18861,-21.555416 -59.27741,-19.399876 -15.08879,2.15554 -16.16656,19.399876 -23.71096,25.866496 -7.5444,6.46663 -19.39988,15.0888 -19.39988,15.0888 0,0 10.77771,2.15554 5.38886,6.46662 -5.38886,4.31109 -22.63319,18.32211 -31.25536,20.47765 -8.62217,2.15554 -29.099817,15.08879 -39.877527,15.08879 -10.777709,0 -21.5554191,-4.31108 -21.5554191,-4.31108 z"
             id="path829"
             inkscape:connector-curvature="0" />
          <path
             style="fill:#ffffff;fill-opacity:0.95967742;fill-rule:evenodd;stroke:none"
             d="m 72.58234,113.65085 c 8.62216,-3.23331 11.85548,2.15554 10.77771,6.46662 -1.07778,4.31109 1.07777,3.23332 1.07777,3.23332 0,0 5.38885,-4.31109 10.77771,-11.85548 5.38885,-7.5444 26.94427,-32.333126 21.55542,-38.799756 -5.38886,-6.46662 -16.16657,-4.31108 -25.86651,6.46663 -9.69994,10.77771 -18.3221,34.488666 -18.3221,34.488666 z"
             id="path830"
             inkscape:connector-curvature="0" />
          <path
             style="fill:#ffffff;fill-opacity:0.95967742;fill-rule:evenodd;stroke:none"
             d="m 289.2143,219.2724 15.0888,-25.8665 c 0,0 15.08879,5.38886 25.8665,19.39988 10.77771,14.01102 12.93325,46.34415 20.47765,58.19963 7.54439,11.85548 47.42192,-3.23331 64.66626,7.5444 17.24433,10.77771 54.96632,89.45499 48.49969,113.16595 -6.46663,23.71096 -15.08879,24.78873 -26.94427,6.46663 -11.85548,-18.32211 -35.56645,-92.68831 -53.88855,-95.92162 -18.32211,-3.23331 -6.46663,26.94427 -2.15554,39.87753 4.31108,12.93325 20.47764,37.72198 15.08879,51.733 -5.38886,14.01103 -18.32211,33.4109 -18.32211,33.4109 0,0 14.01103,-39.87752 10.77771,-50.65523 -3.23331,-10.77771 -44.18861,-90.53276 -47.42192,-95.92162 -3.23331,-5.38885 -21.55542,-36.64421 -25.8665,-40.9553 -4.31109,-4.31108 -25.86651,-20.47765 -25.86651,-20.47765 z"
             id="path831"
             inkscape:connector-curvature="0" />
          <path
             style="fill:url(#linearGradient3978);fill-opacity:0.25806448;fill-rule:evenodd;stroke:none"
             d="m 11.14939,117.96193 c 0,0 8.622168,-18.322096 17.244335,-28.022036 8.622168,-9.69994 57.121865,-56.04409 106.699325,-68.97735 49.57747,-12.9332509 114.24373,-12.9332509 164.89896,5.38886 50.65524,18.32211 92.68831,38.79975 121.78812,72.21066 29.09982,33.410896 63.58849,81.910586 64.66626,93.766066 1.07777,11.85548 10.77771,63.58849 10.77771,85.14391 0,21.55542 -107.7771,-67.89957 -126.0992,-93.76608 -18.32211,-25.8665 -84.06614,-123.943656 -117.47704,-132.565826 -33.4109,-8.62217 -111.01041,-20.47765 -127.17698,-10.77771 -16.16656,9.69994 -44.18861,17.24434 -57.12186,36.64422 -12.93325,19.39987 2.15554,5.38885 3.23332,11.85548 1.07777,6.46662 -18.32211,20.477636 -32.333134,29.099806 -14.011023,8.62217 -29.099816,0 -29.099816,0 z"
             id="path832"
             inkscape:connector-curvature="0" />
          <path
             style="fill:url(#linearGradient3980);fill-opacity:0.20967742;fill-rule:evenodd;stroke:none"
             d="m 339.86954,487.63738 c 0,0 -37.72199,-44.18861 -53.88855,-47.42192 -16.16657,-3.23332 -67.89957,7.54439 -84.06614,17.24433 -16.16656,9.69994 -24.78873,14.01102 -24.78873,14.01102 l 87.29945,-11.85548 -32.33313,15.0888 c 0,0 26.94427,-6.46663 52.81078,-1.07777 25.8665,5.38885 54.96632,14.01102 54.96632,14.01102 z"
             id="path833"
             inkscape:connector-curvature="0" />
        </g>
      </g>
    </g>
  </g>
</svg>
